<svg version="1.2" xmlns="http://www.w3.org/2000/svg" viewBox="0 0 500 500" width="500" height="500"><style>.a{mix-blend-mode:soft-light}</style><path class="a" d="m114.7 202.4l0.4-9.4q0-8-3.1-11.1l1.4-1.5q2.9 2.9 7.3 2.9h96.1q4.5 0 7.4-2.9l1.4 1.5q-2.8 2.8-2.8 7.3l-0.3 9.4q0 7.9 3.1 11.1l-1.4 1.5q-3.3-3.4-10.7-3.4l-16.2 1.1q-7.7 0-11.1-3.4l-1.5 1.5q2.8 2.7 2.8 7.3v60.8q0 7.6 1.4 22.7 1.4 15.1 1.4 19.8 0 8.4-3.1 8.4-3 0-3-6 0-5.9 1-16 1-10.2 1-15.3 0-8-3.1-8-1.6 0-2.4 1.8-0.9 1.9-0.9 3.6l1.7 15.3q0 5.3-3 5.3-1.6 0-2.3-1.5-0.7-1.6-0.7-3.6 0-2.1 1.3-6.7 1.3-4.7 1.3-7.6 0-2.9-2.6-4.5-2.5-1.5-6.3-1.5-3.9 0-8 1.5-4.1 1.6-7.3 4.9-3.1 3.2-3.1 6.4 0 3.2 0.9 7.7 1.1 4.5 1.1 7.6 0 3-2.8 3-3 0-3-3.2 0-3.3 1.1-8.3 1.2-5 1.2-7.4v-19.1q0.2-40.1 0.2-60.1 0-4.6 2.7-7.3l-1.4-1.5q-3.2 3.3-10.7 3.3l-15.8-1q-7.5 0-10.9 3.4l-1.4-1.5q2.7-2.8 2.7-7.3zm63.2 115.4q1.7 8 1.7 14 0 2.5-1.8 2.5-1.8 0-1.8-2.3 0-6.6 1.9-14.2zm102.7-35.8l-2.4 1.2q-1.7-3.2-6.1-3.2h-34.6q-4.4 0-8.4 1.8l-0.5-1.1q4.1-2 6.8-5.3l35.3-42.7q2.9-3.4 6.9-3.4v-2.3q-3.9 0-6.6-3.6l-28.7-36.7q-2.8-3.6-6.6-5.5l0.5-1.1q3.9 1.9 8.3 1.9l32.7 0.1q4.5 0 6.1-3.3l2.3 1.2q-0.7 1.7-0.8 3.1 0 1.4 1.9 3.8l8.5 11q2.6 3.3 2.6 7.7h1.9q0-4.3 2.7-7.7l8.5-11q1.7-2.4 1.7-3.8 0-1.6-0.6-3.1l2.3-1.2q1.6 3.3 6.1 3.3l31.9-0.1q4.4 0 8.3-1.9l0.5 1.1q-3.9 1.9-6.6 5.4l-30.1 36.9q-2.8 3.4-6.8 3.4v2.4q4 0 6.7 3.4l33.6 42.7q2.6 3.3 6.7 5.3l-0.6 1.2q-3.8-1.9-8.3-1.9h-33.8q-3.3 0-5.1 2.1-1.8 2.1-1.8 7.7 0 5.5 1.5 19 1.6 13.6 1.6 18.1 0 4.5-1.8 6.5-1.7 1.9-4 1.9-2.2 0-3.8-1.6-1.5-1.8-1.5-6 0-4.4 2.5-18.8 2.6-14.4 2.6-19.8v-14l-11.6-16.5q-2.7-3.9-2.7-7.8h-1.8q0 4.2-2.6 7.8l-11.9 16.5q-1.7 2.5-1.7 3.8 0 1.4 0.8 3.1z"/></svg>